<svg width="124" height="124" viewBox="0 0 124 124" fill="none" xmlns="http://www.w3.org/2000/svg">
<path d="M38.75 58.125H85.25C86.2777 58.125 87.2633 57.7167 87.99 56.99C88.7167 56.2633 89.125 55.2777 89.125 54.25V31C89.125 29.9723 88.7167 28.9867 87.99 28.26C87.2633 27.5333 86.2777 27.125 85.25 27.125H38.75C37.7223 27.125 36.7367 27.5333 36.01 28.26C35.2833 28.9867 34.875 29.9723 34.875 31V54.25C34.875 55.2777 35.2833 56.2633 36.01 56.99C36.7367 57.7167 37.7223 58.125 38.75 58.125ZM42.625 34.875H81.375V50.375H42.625V34.875ZM96.875 11.625H27.125C25.0696 11.625 23.0983 12.4415 21.6449 13.8949C20.1915 15.3483 19.375 17.3196 19.375 19.375V104.625C19.375 106.68 20.1915 108.652 21.6449 110.105C23.0983 111.558 25.0696 112.375 27.125 112.375H96.875C98.9304 112.375 100.902 111.558 102.355 110.105C103.808 108.652 104.625 106.68 104.625 104.625V19.375C104.625 17.3196 103.808 15.3483 102.355 13.8949C100.902 12.4415 98.9304 11.625 96.875 11.625ZM96.875 104.625H27.125V19.375H96.875V104.625ZM67.8125 71.6875C67.8125 72.8371 67.4716 73.9609 66.8329 74.9168C66.1942 75.8726 65.2864 76.6176 64.2243 77.0575C63.1622 77.4975 61.9936 77.6126 60.866 77.3883C59.7385 77.164 58.7028 76.6104 57.8899 75.7976C57.077 74.9847 56.5235 73.949 56.2992 72.8215C56.0749 71.6939 56.19 70.5253 56.6299 69.4632C57.0699 68.4011 57.8149 67.4933 58.7707 66.8546C59.7266 66.2159 60.8504 65.875 62 65.875C63.5416 65.875 65.02 66.4874 66.1101 67.5774C67.2001 68.6675 67.8125 70.1459 67.8125 71.6875ZM67.8125 91.0625C67.8125 92.2121 67.4716 93.3359 66.8329 94.2918C66.1942 95.2476 65.2864 95.9926 64.2243 96.4325C63.1622 96.8725 61.9936 96.9876 60.866 96.7633C59.7385 96.539 58.7028 95.9854 57.8899 95.1726C57.077 94.3597 56.5235 93.324 56.2992 92.1965C56.0749 91.0689 56.19 89.9003 56.6299 88.8382C57.0699 87.7761 57.8149 86.8683 58.7707 86.2296C59.7266 85.5909 60.8504 85.25 62 85.25C63.5416 85.25 65.02 85.8624 66.1101 86.9524C67.2001 88.0425 67.8125 89.5209 67.8125 91.0625ZM48.4375 71.6875C48.4375 72.8371 48.0966 73.9609 47.4579 74.9168C46.8192 75.8726 45.9114 76.6176 44.8493 77.0575C43.7873 77.4975 42.6186 77.6126 41.491 77.3883C40.3635 77.164 39.3278 76.6104 38.5149 75.7976C37.702 74.9847 37.1485 73.949 36.9242 72.8215C36.6999 71.6939 36.815 70.5253 37.2549 69.4632C37.6949 68.4011 38.4399 67.4933 39.3957 66.8546C40.3516 66.2159 41.4754 65.875 42.625 65.875C44.1666 65.875 45.645 66.4874 46.7351 67.5774C47.8251 68.6675 48.4375 70.1459 48.4375 71.6875ZM48.4375 91.0625C48.4375 92.2121 48.0966 93.3359 47.4579 94.2918C46.8192 95.2476 45.9114 95.9926 44.8493 96.4325C43.7873 96.8725 42.6186 96.9876 41.491 96.7633C40.3635 96.539 39.3278 95.9854 38.5149 95.1726C37.702 94.3597 37.1485 93.324 36.9242 92.1965C36.6999 91.0689 36.815 89.9003 37.2549 88.8382C37.6949 87.7761 38.4399 86.8683 39.3957 86.2296C40.3516 85.5909 41.4754 85.25 42.625 85.25C44.1666 85.25 45.645 85.8624 46.7351 86.9524C47.8251 88.0425 48.4375 89.5209 48.4375 91.0625ZM87.1875 71.6875C87.1875 72.8371 86.8466 73.9609 86.2079 74.9168C85.5692 75.8726 84.6614 76.6176 83.5993 77.0575C82.5372 77.4975 81.3686 77.6126 80.241 77.3883C79.1135 77.164 78.0778 76.6104 77.2649 75.7976C76.4521 74.9847 75.8985 73.949 75.6742 72.8215C75.4499 71.6939 75.565 70.5253 76.005 69.4632C76.4449 68.4011 77.1899 67.4933 78.1457 66.8546C79.1016 66.2159 80.2254 65.875 81.375 65.875C82.9166 65.875 84.395 66.4874 85.4851 67.5774C86.5751 68.6675 87.1875 70.1459 87.1875 71.6875ZM87.1875 91.0625C87.1875 92.2121 86.8466 93.3359 86.2079 94.2918C85.5692 95.2476 84.6614 95.9926 83.5993 96.4325C82.5372 96.8725 81.3686 96.9876 80.241 96.7633C79.1135 96.539 78.0778 95.9854 77.2649 95.1726C76.4521 94.3597 75.8985 93.324 75.6742 92.1965C75.4499 91.0689 75.565 89.9003 76.005 88.8382C76.4449 87.7761 77.1899 86.8683 78.1457 86.2296C79.1016 85.5909 80.2254 85.25 81.375 85.25C82.9166 85.25 84.395 85.8624 85.4851 86.9524C86.5751 88.0425 87.1875 89.5209 87.1875 91.0625Z" fill="black"/>
</svg>
